<?xml version="1.0" standalone="no"?>
<!DOCTYPE svg PUBLIC "-//W3C//DTD SVG 20010904//EN"
 "http://www.w3.org/TR/2001/REC-SVG-20010904/DTD/svg10.dtd">
<svg version="1.0" xmlns="http://www.w3.org/2000/svg"
 width="2380.000000pt" height="695.000000pt" viewBox="0 0 2380.000000 695.000000"
 preserveAspectRatio="xMidYMid meet">

<g transform="translate(0.000000,695.000000) scale(0.100000,-0.100000)"
fill="#004d49" stroke="none">
<path d="M472 6844 c-90 -24 -164 -66 -238 -136 -72 -69 -109 -124 -147 -225
-21 -57 -22 -66 -25 -725 l-3 -668 286 0 285 0 0 605 0 605 600 0 600 0 0 280
0 280 -652 -1 c-532 0 -663 -3 -706 -15z"/>
<path d="M3570 6580 l0 -280 600 0 600 0 0 -605 0 -605 283 2 282 3 0 645 c0
710 1 698 -63 825 -44 89 -144 191 -230 234 -122 62 -113 61 -824 61 l-648 0
0 -280z"/>
<path d="M8561 6779 c-111 -12 -293 -53 -400 -91 -120 -42 -299 -136 -411
-216 -167 -118 -379 -343 -529 -561 l-51 -75 0 422 0 422 -375 0 -375 0 0
-2515 0 -2515 375 0 375 0 0 1490 c0 980 4 1524 11 1588 54 503 282 910 643
1153 151 102 289 160 476 201 128 29 402 31 534 5 269 -54 468 -158 638 -335
185 -193 296 -428 360 -762 22 -115 22 -117 25 -1727 l4 -1613 374 0 375 0 0
1504 c0 976 4 1540 10 1607 41 402 183 724 424 964 190 188 396 298 669 357
134 28 413 31 556 4 501 -92 834 -414 965 -933 63 -248 60 -144 63 -1901 l4
-1602 375 0 375 0 -4 1698 c-2 1276 -6 1717 -16 1777 -81 529 -251 897 -548
1187 -220 215 -541 376 -872 438 -642 120 -1268 -27 -1721 -405 -147 -123
-318 -313 -435 -485 l-48 -69 -56 100 c-90 160 -177 275 -306 404 -145 145
-257 226 -430 311 -201 98 -384 150 -614 173 -119 13 -319 12 -440 0z"/>
<path d="M21460 6780 c-480 -50 -916 -217 -1290 -496 -130 -97 -356 -316 -463
-449 -300 -372 -490 -816 -564 -1320 -24 -169 -24 -562 1 -730 88 -598 333
-1092 746 -1506 392 -392 869 -634 1425 -721 187 -29 586 -32 770 -5 489 72
910 260 1285 574 103 87 380 359 380 374 0 4 -106 107 -236 229 l-235 222
-122 -118 c-147 -143 -226 -208 -375 -308 -412 -275 -882 -378 -1354 -296
-362 62 -676 222 -941 479 -173 168 -277 311 -387 536 -154 312 -220 635 -207
1005 15 432 140 806 380 1142 414 579 1120 848 1816 692 358 -80 661 -258 993
-582 l137 -134 94 99 c269 282 392 416 395 427 4 16 -185 198 -322 311 -378
311 -797 493 -1286 560 -136 18 -519 27 -640 15z"/>
<path d="M14255 6648 c9 -18 523 -1146 1144 -2507 l1129 -2474 -15 -36 c-42
-104 -170 -349 -231 -441 -168 -253 -328 -382 -548 -441 -67 -19 -106 -22
-254 -22 -267 -1 -436 32 -653 125 -65 27 -120 48 -121 47 -14 -15 -246 -575
-242 -584 6 -16 218 -105 353 -148 402 -130 895 -142 1233 -30 203 68 372 174
536 338 219 219 396 500 572 910 42 99 2101 5158 2149 5283 4 9 -79 12 -394
12 l-399 0 -803 -2087 c-442 -1149 -807 -2091 -810 -2095 -3 -4 -334 745 -735
1665 -401 920 -813 1862 -914 2095 l-184 422 -414 0 -414 0 15 -32z"/>
<path d="M2360 5415 l0 -855 -840 0 -840 0 0 -335 0 -335 840 0 840 0 0 -855
0 -855 340 0 340 0 0 855 0 855 835 0 835 0 0 335 0 335 -835 0 -835 0 0 855
0 855 -340 0 -340 0 0 -855z"/>
<path d="M60 2722 c0 -604 1 -643 20 -716 11 -43 32 -101 47 -129 40 -75 155
-188 230 -226 121 -60 124 -61 831 -61 l642 0 0 285 0 285 -600 0 -600 0 0
600 0 600 -285 0 -285 0 0 -638z"/>
<path d="M4770 2760 l0 -600 -600 0 -600 0 0 -285 0 -285 643 0 c543 0 652 2
702 15 196 50 340 190 402 391 17 55 18 107 18 709 l0 650 -282 3 -283 2 0
-600z"/>
</g>
</svg>
